<svg xmlns="http://www.w3.org/2000/svg" xmlns:xlink="http://www.w3.org/1999/xlink" viewBox="0 0 948.32 1240.69"><defs><style>.cls-1{fill:url(#linear-gradient);}.cls-2{fill:#fff;}.cls-3{opacity:0.28;}</style><linearGradient id="linear-gradient" x1="302.08" y1="1229.48" x2="658.49" y2="296.81" gradientUnits="userSpaceOnUse"><stop offset="0" stop-color="#481199"/><stop offset="0.18" stop-color="#401a9c"/><stop offset="0.49" stop-color="#2c34a5"/><stop offset="0.88" stop-color="#0b5db3"/><stop offset="0.99" stop-color="#006bb8"/></linearGradient></defs><title>1</title><g id="Layer_2" data-name="Layer 2"><g id="Layer_1-2" data-name="Layer 1"><path d="M388.09,1094.91"/><path class="cls-1" d="M929.52,620.47l-58.4-7L787.35,430.58a2.8,2.8,0,0,0-5.3,0L739.24,513,721,459a2.8,2.8,0,0,0-5.3,0l-12.18,30.91-9.81-6.84L672.46,429a2.8,2.8,0,0,0-5.3,0l-13.42,26.19-14.27-9.94-20.8-59.46a3.11,3.11,0,0,0-5.9,0L601.61,418.9,483.42,217.52V140.37l121.86-26.58v37.93l115.26-24.06a9.66,9.66,0,0,0,7.24-6.54l.34-1.06a9.66,9.66,0,0,0-2.13-9.49L698,80.44,726.4,41.67a9.66,9.66,0,0,0,.32-11h0a9.66,9.66,0,0,0-10.12-4.2l-65.93,14,1-40.52L468.31,40l.87,94.57v83.5L323.42,439.26l-8-20.2a3.17,3.17,0,0,0-5.9,0L293.3,460.37l-14.7,10.3L261.37,427a3.17,3.17,0,0,0-5.9,0l-14,35.47-34.22-86.87a3.17,3.17,0,0,0-5.9,0L161.46,476.88l-8.58-21.79a2.8,2.8,0,0,0-5.3,0L77.72,613.44l-58.92,7A21.31,21.31,0,0,0,1.16,648.55c14.9,43.47,43.2,135.07,43.2,203.64,0,33.15-11.81,89.69-20.53,108.12a21.32,21.32,0,0,0,8.5,27.56l428.18,249.91a21.31,21.31,0,0,0,21.34.08L917.39,988.11a21.35,21.35,0,0,0,8.38-28.18C916.44,941.46,904,885.11,904,852.19c0-68.56,28.3-160.17,43.2-203.63A21.31,21.31,0,0,0,929.52,620.47ZM620,120.48v-9.15l7.43-1.58Zm29.49-17.61a7.07,7.07,0,0,0,.42-.76c.07-.15.15-.3.21-.45a7.09,7.09,0,0,0,.25-.8c0-.15.09-.31.12-.46a7.13,7.13,0,0,0,.1-.91c0-.13,0-.26,0-.4s0,0,0,0v-44l57.14-12.15L683,76.77a7.12,7.12,0,0,0,.53,9.06l27.27,29.36L629,132.58l20.41-29.47C649.46,103,649.49,103,649.53,102.88Zm-166.11-50,153-32.52V48.28a7.08,7.08,0,0,0,0,2.1V93.29l-153,32.52ZM723,540.89l-5.54-10.77,2.85-1.8,4.43,8.8,4.59-8.8,2.85,1.8-5.54,10.77,28.79,58.83-19.79-2.36-10.9-23.44-9.62,21-17.62-2.1ZM606.39,474.72l4.95-3.12,7.7,15.27,8-15.27,4.95,3.12-9.62,18.7,46.42,96-34-4.06L619,550.78l-13.9,31-30.28-3.61L616,493.42Zm-139.12-50,9.46,18.78,9.8-18.78,6.08,3.83-11.82,23,52.1,121.6-39.62-4.72-16.53-46.37-16,45.67L421,572.49l52-120.91-11.82-23ZM330,493.42l-9.62-18.7,4.95-3.12,7.7,15.27,8-15.27,4.95,3.12-9.62,18.7L378,577.63l-30.39,3.63L333,550.78l-16.08,34.13-34.4,4.1ZM224.36,540.89l-5.54-10.77,2.85-1.8,4.43,8.8,4.59-8.8,2.85,1.8L228,540.89l25.25,51.61-17.54,2.09-9.61-20.67L215.52,597l-19.88,2.37Z"/><path d="M425.31,1140"/><path class="cls-2" d="M160.72,905.22c-4.45,11.13-13.71,16.87-26.83,16.87-19.22,0-28.82-13.83-28.82-30.46s9.61-30.46,28.82-30.46c13.12,0,22.38,5.74,26.83,16.87l-13,5.27c-3-6.21-7.26-9.73-13.83-9.73-9.14,0-13.59,7.62-13.59,18s4.45,18,13.59,18c6.56,0,10.78-3.52,13.83-9.73Z"/><path class="cls-2" d="M206.41,861.17c19,0,30,13.36,30,30.46s-11,30.46-30,30.46-30-13.36-30-30.46S187.43,861.17,206.41,861.17Zm0,48.51c9.37,0,14.76-8.32,14.76-18s-5.39-18-14.76-18-14.76,8.32-14.76,18S197,909.68,206.41,909.68Z"/><path class="cls-2" d="M290.77,921.16V881.79c0-6-2.93-8.2-7.26-8.2-7.15,0-12.77,8.32-12.77,25.9v21.68H256.21V862.1h14.53v9.49c4.33-6.56,9.37-10.43,17-10.43,7.26,0,13.94,3.63,16.52,12.19,4.22-7.62,10.78-12.19,18-12.19,11,0,17.58,6.8,17.58,18.16v41.83H325.34V881.79c0-6-2.93-8.2-7.26-8.2-7,0-12.77,8-12.77,24.61v23Z"/><path class="cls-2" d="M396,921.16V881.79c0-6-2.93-8.2-7.26-8.2-7.15,0-12.77,8.32-12.77,25.9v21.68H361.43V862.1H376v9.49c4.33-6.56,9.37-10.43,17-10.43,7.26,0,13.94,3.63,16.52,12.19,4.22-7.62,10.78-12.19,18-12.19,11,0,17.58,6.8,17.58,18.16v41.83H430.56V881.79c0-6-2.93-8.2-7.26-8.2-7,0-12.77,8-12.77,24.61v23Z"/><path class="cls-2" d="M503.09,921.16v-9.49c-4.33,6.21-10.66,10.43-18.28,10.43-10.55,0-18.16-6-18.16-17.81V862.1h14.53v37.85c0,7,3.52,9.73,8.44,9.73,7,0,13.47-8.44,13.47-24V862.1h14.53v59.05Z"/><path class="cls-2" d="M554.17,862.1v9.49c4.33-6.21,10.66-10.43,18.28-10.43,10.55,0,18.16,6,18.16,17.81v42.18H576.08V883.31c0-7-3.52-9.73-8.44-9.73-7,0-13.47,8.44-13.47,24v23.55H539.64V862.1Z"/><path class="cls-2" d="M617.44,835.74a9.37,9.37,0,1,1-9.37,9.37A9.18,9.18,0,0,1,617.44,835.74Zm7.26,26.36v59.05H610.18V862.1Z"/><path class="cls-2" d="M682.24,920a22.3,22.3,0,0,1-9.61,2.11c-13.36,0-21.68-7.15-21.68-21.79V874.52h-9.14V862.1H651V847.34l14.53-9.14v23.9h15.58v12.42H665.48v25.54c0,7.26,2.81,9.61,7.73,9.61a11.13,11.13,0,0,0,5.62-1.41Z"/><path class="cls-2" d="M706.73,835.74a9.37,9.37,0,1,1-9.37,9.37A9.18,9.18,0,0,1,706.73,835.74ZM714,862.1v59.05H699.46V862.1Z"/><path class="cls-2" d="M789.8,896.32H749.14c.35,6.56,4.92,13.36,13.94,13.36,6.68,0,10.78-3,14.3-9.14l11.72,4.33c-4.57,10.43-12.54,17.22-26.83,17.22-20.27,0-28.36-16.52-28.36-30.46s8.08-30.46,28.36-30.46c19.68,0,27.54,16.29,27.54,29.18Zm-40.31-11.48h25.43c-1.29-5.86-4.92-11.25-12.65-11.25C754.88,873.59,750.54,879.21,749.49,884.83Z"/><path class="cls-2" d="M845.45,870.77l-8.67,8a12.73,12.73,0,0,0-9.84-5.16c-2.81,0-5.39,1.64-5.39,4.92,0,2.58,2.11,4.45,5.62,5.74,8.08,2.93,21.33,5.51,21.33,18.16,0,10.66-8.2,19.69-21,19.69-12.3,0-20.5-8.67-23.43-15.94l11.6-6.21c2.11,5.74,6.09,9.73,11.83,9.73,4.45,0,7.26-2,7.26-6.33,0-4.92-7.62-6-14.76-9-6.44-2.7-12-6.8-12-15.94s7.38-17.22,18.86-17.22C834.91,861.17,841.82,865,845.45,870.77Z"/><path class="cls-2" d="M360.78,1047.38c-1.31-2.59-2.73-3.69-4.75-3.71a3.16,3.16,0,0,0-3.35,3.13c-.07,6,14.72,5.41,14.61,15.69-.08,6.77-4.57,10.73-11.19,10.65a12,12,0,0,1-11.81-9.82l5.23-3.21c1,3.72,3,7.05,6.79,7.1,2.67,0,4.51-1.28,4.55-4.45.06-5.73-14.43-4.76-14.31-15.73a9.25,9.25,0,0,1,9.55-9.29,10.5,10.5,0,0,1,9.92,6.39Z"/><path class="cls-2" d="M412.63,1060.22c-.1,9.24-5.49,13.48-13.05,13.4s-12.85-4.45-12.75-13.69l.24-21.46,6.43.07-.24,21.55c-.06,5,2,7.54,6.39,7.59s6.5-2.4,6.56-7.44l.24-21.55,6.43.07Z"/><path class="cls-2" d="M435,1039l7.22.08,7.91,21.7,8.4-21.51,7.22.08-.39,34.6-6.43-.07.24-21.36-6.83,18.12-4.65-.05-6.42-18.27-.24,21.36-6.43-.07Z"/><path class="cls-2" d="M488.62,1039.62l7.22.08,7.92,21.7,8.4-21.51,7.22.08-.39,34.6-6.43-.07.24-21.36L506,1071.26l-4.65-.05-6.42-18.27-.24,21.36-6.43-.07Z"/><path class="cls-2" d="M548.24,1074.89l-6.43-.07.39-34.6,6.43.07Z"/><path class="cls-2" d="M567.54,1040.5l25.61.29-.07,5.93-9.59-.11-.32,28.67-6.43-.07.32-28.67-9.59-.11Z"/><path class="cls-2" d="M439.82,1125.38h4.77v7.35H423.28v-4.33l15.86-15.13a6.9,6.9,0,0,0,1.31-3.89,6.35,6.35,0,1,0-12.7,0v.2h-4.18v-.2a10.51,10.51,0,1,1,21,0,11.4,11.4,0,0,1-2.38,6.86l-12.9,12.17h10.51Z"/><path class="cls-2" d="M475.12,1110.88v9.54a12.16,12.16,0,0,1-12,12.31c-6.62,0-11.82-5.64-12-12.31v-9.54a12.13,12.13,0,0,1,12-12.31C469.81,1098.57,474.73,1104.11,475.12,1110.88Zm-8.08-6.71a7.57,7.57,0,0,0-3.89-1.12,7.72,7.72,0,0,0-7.59,7.83v9.54a8.88,8.88,0,0,0,.39,2.53Zm3.75,6.71a9.3,9.3,0,0,0-.44-2.63L459.11,1127a7.57,7.57,0,0,0,11.68-6.62Z"/><path class="cls-2" d="M494,1132.73H480.38v-4.53H485v-24.77h-4.62v-4.82h9.15v29.59H494Z"/><path class="cls-2" d="M525.78,1098.71l-20.44,34.06h-5.4l17.52-29.59h-12.9v3.7h-4.77v-8.22Z"/><path d="M425.31,948"/><path class="cls-2" d="M256.83,679.74c-36,0-65.23,30.67-65.23,68.37,0,37.89,29.26,68.71,65.23,68.71,37.46,0,66.8-30.18,66.8-68.71C323.63,709.77,294.29,679.74,256.83,679.74Zm0,112.45c-22.77,0-40.6-19.37-40.6-44.09,0-24.43,17.83-43.56,40.6-43.56A41.25,41.25,0,0,1,287,717.22a44.33,44.33,0,0,1,12,30.89C299,773.24,280.87,792.19,256.83,792.19Z"/><path class="cls-2" d="M415.2,679.39H361.13v24.45h11.16v88.52H361.13v24.45h47.82V792.37H397.08V779H415.2a39.87,39.87,0,0,0,6.82-.57,50,50,0,0,0,42-49.32A50.05,50.05,0,0,0,415.2,679.39ZM397.08,704h17.24a25.17,25.17,0,0,1,0,50.34H397.08Z"/><polygon class="cls-2" points="497.03 703.15 509.58 703.15 509.58 792.72 496.51 792.72 496.51 816.81 594.54 817 594.54 792.72 534.21 792.72 534.21 761.03 581.46 761.03 581.46 736.92 534.21 736.92 534.21 703.15 594.71 703.15 594.71 679.04 497.03 679.04 497.03 703.15"/><polygon class="cls-2" points="761.42 704.19 761.42 679.04 711.87 679.04 711.87 704.19 723.72 704.19 723.72 769.54 673.05 679.41 632.36 679.01 632.36 704.19 645.26 704.19 645.26 792.02 632.36 792.02 632.36 817 681.92 817 681.92 792.02 669.89 792.02 669.89 726.43 721.81 816.82 761.42 816.82 761.42 791.5 748.35 791.5 748.35 704.19 761.42 704.19"/><g class="cls-3"><circle class="cls-2" cx="632.68" cy="997.02" r="4.48"/><circle class="cls-2" cx="616.23" cy="997.02" r="4.48"/><circle class="cls-2" cx="583.33" cy="997.02" r="4.48"/><circle class="cls-2" cx="599.78" cy="997.02" r="4.48"/><circle class="cls-2" cx="566.88" cy="997.02" r="4.48"/><circle class="cls-2" cx="550.43" cy="997.02" r="4.48"/><circle class="cls-2" cx="533.6" cy="997.02" r="4.48"/><circle class="cls-2" cx="517.15" cy="997.02" r="4.48"/><circle class="cls-2" cx="484.25" cy="997.02" r="4.48"/><circle class="cls-2" cx="500.7" cy="997.02" r="4.48"/><circle class="cls-2" cx="451.69" cy="997.02" r="4.48"/><circle class="cls-2" cx="435.24" cy="997.02" r="4.48"/><circle class="cls-2" cx="468.14" cy="997.02" r="4.48"/><circle class="cls-2" cx="418.79" cy="997.02" r="4.48"/><circle class="cls-2" cx="303.64" cy="997.02" r="4.48"/><circle class="cls-2" cx="320.09" cy="997.02" r="4.48"/><circle class="cls-2" cx="336.54" cy="997.02" r="4.48"/><circle class="cls-2" cx="352.99" cy="997.02" r="4.48"/><circle class="cls-2" cx="369.44" cy="997.02" r="4.48"/><circle class="cls-2" cx="385.89" cy="997.02" r="4.48"/><circle class="cls-2" cx="402.34" cy="997.02" r="4.48"/></g></g></g></svg>