<svg xmlns="http://www.w3.org/2000/svg" viewBox="0 0 948.32 1240.69"><title>Asset 4</title><g id="Layer_2" data-name="Layer 2"><g id="Layer_1-2" data-name="Layer 1"><path d="M439.41,729.1A25.11,25.11,0,0,0,414.32,704H397.08v50.34h17.24A24.9,24.9,0,0,0,439.41,729.1Z"/><path d="M206.41,873.59c-9.37,0-14.76,8.32-14.76,18s5.39,18,14.76,18,14.76-8.32,14.76-18S215.79,873.59,206.41,873.59Z"/><path d="M929.52,620.47l-58.4-7L787.35,430.58a2.8,2.8,0,0,0-5.3,0L739.24,513,721,459a2.8,2.8,0,0,0-5.3,0l-12.18,30.91-9.81-6.84L672.46,429a2.8,2.8,0,0,0-5.3,0l-13.42,26.19-14.27-9.94-20.8-59.46a3.11,3.11,0,0,0-5.9,0L601.61,418.9,483.42,217.52V140.37l121.86-26.58v37.93l115.26-24.06a9.66,9.66,0,0,0,7.24-6.54l.34-1.06a9.66,9.66,0,0,0-2.13-9.49L698,80.44,726.4,41.67a9.66,9.66,0,0,0-9.8-15.16l-65.93,14,1-40.52L468.31,40l.87,94.57v83.5L323.42,439.26l-8-20.2a3.17,3.17,0,0,0-5.9,0L293.3,460.37l-14.7,10.3L261.37,427a3.17,3.17,0,0,0-5.9,0l-14,35.47-34.22-86.87a3.17,3.17,0,0,0-5.9,0L161.46,476.88l-8.58-21.79a2.8,2.8,0,0,0-5.3,0L77.72,613.44l-58.92,7A21.31,21.31,0,0,0,1.17,648.55c14.9,43.47,43.2,135.07,43.2,203.64,0,33.15-11.81,89.69-20.53,108.12a21.32,21.32,0,0,0,8.5,27.56l428.18,249.91a21.31,21.31,0,0,0,21.34.08L917.39,988.11a21.34,21.34,0,0,0,8.38-28.18C916.44,941.46,904,885.11,904,852.19c0-68.56,28.3-160.17,43.2-203.63A21.31,21.31,0,0,0,929.52,620.47ZM620,120.48v-9.15l7.43-1.58Zm29.48-17.61a7,7,0,0,0,.42-.76c.07-.15.15-.3.21-.45a7.11,7.11,0,0,0,.25-.8c0-.15.09-.31.12-.46a7.1,7.1,0,0,0,.1-.91c0-.13,0-.26,0-.4s0,0,0,0v-44l57.14-12.15L683,76.77a7.12,7.12,0,0,0,.53,9.06l27.27,29.36L629,132.58l20.41-29.47C649.46,103,649.49,103,649.53,102.88Zm-166.11-50,153-32.52V48.28a7.09,7.09,0,0,0,0,2.1V93.29l-153,32.52ZM133.88,909.68c6.56,0,10.78-3.52,13.83-9.73l13,5.27c-4.45,11.13-13.71,16.87-26.83,16.87-19.22,0-28.82-13.83-28.82-30.46s9.61-30.46,28.82-30.46c13.12,0,22.38,5.74,26.83,16.87l-13,5.27c-3-6.21-7.26-9.73-13.83-9.73-9.14,0-13.59,7.62-13.59,18S124.74,909.68,133.88,909.68ZM723,540.89l-5.54-10.77,2.85-1.8,4.43,8.8,4.59-8.8,2.85,1.8-5.54,10.77,28.79,58.83-19.79-2.36-10.9-23.44-9.62,21-17.62-2.1ZM461.19,428.59l6.08-3.83,9.46,18.78,9.8-18.78,6.08,3.83-11.82,23,52.1,121.6-39.62-4.72-16.53-46.37-16,45.67L421,572.49l52-120.91Zm56.42,492.57H503.09v-9.49c-4.33,6.21-10.66,10.43-18.28,10.43-10.55,0-18.16-6-18.16-17.81V862.1h14.53v37.85c0,7,3.52,9.73,8.44,9.73,7,0,13.47-8.44,13.47-24V862.1h14.53Zm4,75.86a4.48,4.48,0,1,1-4.48-4.48A4.48,4.48,0,0,1,521.62,997Zm-16.45,0a4.48,4.48,0,1,1-4.48-4.48A4.48,4.48,0,0,1,505.17,997Zm-32.55,0a4.48,4.48,0,1,1-4.48-4.48A4.48,4.48,0,0,1,472.62,997ZM464,729.1a50,50,0,0,1-42,49.32,39.87,39.87,0,0,1-6.82.57H397.08v13.38h11.86v24.45H361.13V792.37h11.16V703.84H361.13V679.39H415.2A50.05,50.05,0,0,1,464,729.1ZM456.17,997a4.48,4.48,0,1,1-4.48-4.48A4.48,4.48,0,0,1,456.17,997ZM330,493.42l-9.62-18.7,4.95-3.12L333,486.88l8-15.27,4.95,3.12-9.62,18.7L378,577.63l-30.39,3.63L333,550.78l-16.08,34.13-34.4,4.1ZM357.47,997a4.48,4.48,0,1,1-4.48-4.48A4.48,4.48,0,0,1,357.47,997ZM224.36,540.89l-5.54-10.77,2.85-1.8,4.43,8.8,4.59-8.8,2.85,1.8L228,540.89l25.25,51.61-17.54,2.09-9.61-20.67L215.52,597l-19.88,2.37Zm32.48,138.85c37.46,0,66.8,30,66.8,68.37,0,38.53-29.34,68.71-66.8,68.71-36,0-65.23-30.83-65.23-68.71C191.6,710.41,220.87,679.74,256.83,679.74ZM206.41,922.1c-19,0-30-13.36-30-30.46s11-30.46,30-30.46,30,13.36,30,30.46S225.39,922.1,206.41,922.1Zm97.23,79.4a4.48,4.48,0,1,1,4.48-4.48A4.48,4.48,0,0,1,303.64,1001.5Zm16.45,0a4.48,4.48,0,1,1,4.48-4.48A4.48,4.48,0,0,1,320.09,1001.5Zm-2-127.91c-7,0-12.77,8-12.77,24.61v23H290.77V881.79c0-6-2.93-8.2-7.26-8.2-7.15,0-12.77,8.32-12.77,25.9v21.68H256.21V862.1h14.53v9.49c4.33-6.56,9.37-10.43,17-10.43,7.26,0,13.94,3.63,16.52,12.19,4.22-7.62,10.78-12.19,18-12.19,11,0,17.58,6.8,17.58,18.16v41.83H325.34V881.79C325.34,875.81,322.41,873.59,318.07,873.59Zm18.47,127.91A4.48,4.48,0,1,1,341,997,4.48,4.48,0,0,1,336.54,1001.5Zm19.55,71.64a12,12,0,0,1-11.81-9.82l5.23-3.21c1,3.72,3,7.05,6.79,7.1,2.67,0,4.51-1.28,4.55-4.45.06-5.73-14.43-4.76-14.31-15.73a9.25,9.25,0,0,1,9.55-9.29,10.5,10.5,0,0,1,9.92,6.39l-5.23,3.25c-1.31-2.59-2.73-3.69-4.75-3.71a3.16,3.16,0,0,0-3.35,3.13c-.07,6,14.72,5.41,14.61,15.69C367.21,1069.25,362.71,1073.21,356.09,1073.13Zm13.35-71.64a4.48,4.48,0,1,1,4.48-4.48A4.48,4.48,0,0,1,369.44,1001.5ZM376,921.16H361.43V862.1H376v9.49c4.33-6.56,9.37-10.43,17-10.43,7.26,0,13.94,3.63,16.52,12.19,4.22-7.62,10.78-12.19,18-12.19,11,0,17.58,6.8,17.58,18.16v41.83H430.56V881.79c0-6-2.93-8.2-7.26-8.2-7,0-12.77,8-12.77,24.61v23H396V881.79c0-6-2.93-8.2-7.26-8.2-7.15,0-12.77,8.32-12.77,25.9ZM439.72,997a4.48,4.48,0,1,1-4.48-4.48A4.48,4.48,0,0,1,439.72,997Zm-32.9,0a4.48,4.48,0,1,1-4.48-4.48A4.48,4.48,0,0,1,406.82,997Zm-25.41,0a4.48,4.48,0,1,1,4.48,4.48A4.48,4.48,0,0,1,381.41,997Zm31.21,63.2c-.1,9.24-5.49,13.48-13.05,13.4s-12.85-4.45-12.75-13.69l.24-21.46,6.43.07-.24,21.55c-.06,5,2,7.54,6.39,7.59s6.5-2.4,6.56-7.44l.24-21.55,6.43.07Zm6.17-58.72a4.48,4.48,0,1,1,4.48-4.48A4.48,4.48,0,0,1,418.79,1001.5Zm21,126.9v-3h4.77v7.35H423.28v-4.33l15.86-15.13a6.9,6.9,0,0,0,1.31-3.89,6.35,6.35,0,1,0-12.7,0v.2h-4.18v-.2a10.51,10.51,0,1,1,21,0,11.4,11.4,0,0,1-2.38,6.86l-12.9,12.17Zm1.5-76.06-.24,21.36-6.43-.07L435,1039l7.22.08,7.91,21.7,8.4-21.51,7.22.08-.39,34.6-6.43-.07.24-21.36-6.83,18.12-4.65-.05Zm33.8,68.08a12.16,12.16,0,0,1-12,12.31c-6.62,0-11.82-5.64-12-12.31v-9.54a12.13,12.13,0,0,1,12-12.31c6.67,0,11.58,5.55,12,12.31Zm9.13-127.87a4.48,4.48,0,1,1-4.48,4.48A4.48,4.48,0,0,1,484.25,992.54ZM494,1132.73H480.38v-4.53H485v-24.77h-4.62v-4.82h9.15v29.59H494Zm.65-58.43-6.43-.07.39-34.6,7.22.08,7.92,21.7,8.4-21.51,7.22.08-.39,34.6-6.43-.07.24-21.36L506,1071.26l-4.65-.05-6.42-18.27Zm10.68,58.48h-5.4l17.52-29.59h-12.9v3.7h-4.77v-8.22l26,0ZM533.6,1001.5a4.48,4.48,0,1,1,4.48-4.48A4.48,4.48,0,0,1,533.6,1001.5Zm14.64,73.4-6.43-.07.39-34.6,6.43.07Zm2.19-73.4a4.48,4.48,0,1,1,4.48-4.48A4.48,4.48,0,0,1,550.43,1001.5Zm3.74-103.89v23.55H539.64V862.1h14.53v9.49c4.33-6.21,10.66-10.43,18.28-10.43,10.55,0,18.16,6,18.16,17.81v42.18H576.08V883.31c0-7-3.52-9.73-8.44-9.73C560.62,873.59,554.17,882,554.17,897.61ZM587.81,997a4.48,4.48,0,1,1-4.48-4.48A4.48,4.48,0,0,1,587.81,997Zm-25.41,0a4.48,4.48,0,1,1,4.48,4.48A4.48,4.48,0,0,1,562.4,997Zm30.68,49.7-9.59-.11-.32,28.67-6.43-.07.32-28.67-9.59-.11.07-5.93,25.61.29Zm1.63-343.58h-60.5v33.78h47.25V761H534.21v31.69h60.32V817l-98-.19v-24.1h13.08V703.15H497V679h97.68Zm5.07,298.35a4.48,4.48,0,1,1,4.48-4.48A4.48,4.48,0,0,1,599.78,1001.5ZM574.86,578.19,616,493.42l-9.62-18.7,4.95-3.12,7.7,15.27,8-15.27,4.95,3.12-9.62,18.7,46.42,96-34-4.06L619,550.78l-13.9,31Zm41.38,423.31a4.48,4.48,0,1,1,4.48-4.48A4.48,4.48,0,0,1,616.23,1001.5Zm8.48-80.34H610.18V862.1h14.53Zm-7.26-66.67a9.37,9.37,0,1,1,9.37-9.37A9.18,9.18,0,0,1,617.44,854.49Zm15.24,147a4.48,4.48,0,1,1,4.48-4.48A4.48,4.48,0,0,1,632.68,1001.5Zm39.95-79.4c-13.36,0-21.68-7.15-21.68-21.79V874.52h-9.14V862.1H651V847.34l14.53-9.14v23.9h15.58v12.42H665.48v25.54c0,7.26,2.81,9.61,7.73,9.61a11.13,11.13,0,0,0,5.62-1.41l3.4,11.72A22.3,22.3,0,0,1,672.63,922.1Zm41.36-.94H699.46V862.1H714Zm-7.26-66.67a9.37,9.37,0,1,1,9.37-9.37A9.18,9.18,0,0,1,706.73,854.49ZM669.89,726.43V792h12v25H632.36V792h12.9V704.19h-12.9V679l40.69.4,50.67,90.13V704.19H711.86V679h49.56v25.15H748.35v87.3h13.08v25.32H721.81ZM789.8,896.32H749.14c.35,6.56,4.92,13.36,13.94,13.36,6.68,0,10.78-3,14.3-9.14l11.72,4.33c-4.57,10.43-12.54,17.22-26.83,17.22-20.27,0-28.36-16.52-28.36-30.46s8.08-30.46,28.36-30.46c19.69,0,27.54,16.29,27.54,29.18Zm37.73,25.78c-12.3,0-20.5-8.67-23.43-15.94l11.6-6.21c2.11,5.74,6.09,9.73,11.83,9.73,4.45,0,7.26-2,7.26-6.33,0-4.92-7.62-6-14.76-9-6.44-2.7-12-6.8-12-15.94s7.38-17.22,18.86-17.22c8,0,14.88,3.87,18.51,9.61l-8.67,8a12.73,12.73,0,0,0-9.84-5.16c-2.81,0-5.39,1.64-5.39,4.92,0,2.58,2.11,4.45,5.62,5.74,8.08,2.93,21.33,5.51,21.33,18.16C848.5,913.07,840.3,922.1,827.53,922.1Z"/><path d="M256.83,792.19c24,0,42.17-19,42.17-44.09a44.33,44.33,0,0,0-12-30.89,41.25,41.25,0,0,0-30.15-12.68c-22.77,0-40.6,19.14-40.6,43.56C216.23,772.83,234.07,792.19,256.83,792.19Z"/><path d="M762.26,873.59c-7.38,0-11.72,5.63-12.77,11.25h25.43C773.63,879,770,873.59,762.26,873.59Z"/><path d="M459.11,1127a7.57,7.57,0,0,0,11.68-6.62v-9.54a9.3,9.3,0,0,0-.44-2.63Z"/><path d="M463.15,1103a7.72,7.72,0,0,0-7.59,7.83v9.54a8.88,8.88,0,0,0,.39,2.53L467,1104.16A7.57,7.57,0,0,0,463.15,1103Z"/></g></g></svg>