<svg xmlns="http://www.w3.org/2000/svg" xmlns:xlink="http://www.w3.org/1999/xlink" viewBox="0 0 1706.69 778"><defs><style>.cls-1{fill:#362399;}.cls-2{fill:url(#linear-gradient);}.cls-3{fill:#fff;}</style><linearGradient id="linear-gradient" x1="189.43" y1="770.97" x2="412.92" y2="186.12" gradientUnits="userSpaceOnUse"><stop offset="0" stop-color="#481199"/><stop offset="0.18" stop-color="#401a9c"/><stop offset="0.49" stop-color="#2c34a5"/><stop offset="0.88" stop-color="#0b5db3"/><stop offset="0.99" stop-color="#006bb8"/></linearGradient></defs><title>2</title><g id="Layer_2" data-name="Layer 2"><g id="Layer_2-2" data-name="Layer 2"><path class="cls-1" d="M733.48,218.53c-40.2,0-72.9,34.29-72.9,76.45,0,42.37,32.7,76.84,72.9,76.84,41.87,0,74.67-33.75,74.67-76.84C808.15,252.11,775.35,218.53,733.48,218.53Zm0,127.18c-26.24,0-46.79-22.29-46.79-50.73,0-28.12,20.55-50.14,46.79-50.14,27.23,0,48.56,22,48.56,50.14C782,323.9,761.16,345.71,733.48,345.71Z"/><path class="cls-1" d="M883,218.13H822.72V244h12.62V345.91H822.72v25.91h52.34V345.91H861.64V329H883a43.59,43.59,0,0,0,7.52-.62,54,54,0,0,0,21.85-8.51,54.82,54.82,0,0,0,25-46.41C937.36,243.58,913,218.76,883,218.13Zm-21.35,26.11H882a29.34,29.34,0,0,1,0,58.68H861.64Z"/><polygon class="cls-1" points="946.84 243.26 961.04 243.26 961.04 346.3 946.25 346.3 946.25 371.81 1055.38 372.02 1055.38 346.3 987.15 346.3 987.15 308.72 1040.59 308.72 1040.59 283.2 987.15 283.2 987.15 243.26 1055.57 243.26 1055.57 217.74 946.84 217.74 946.84 243.26"/><polygon class="cls-1" points="1214.54 244.44 1214.54 217.74 1160.23 217.74 1160.23 244.44 1173.64 244.44 1173.64 322.55 1114.95 218.15 1070.32 217.71 1070.32 244.44 1084.91 244.44 1084.91 345.51 1070.32 345.51 1070.32 372.02 1124.62 372.02 1124.62 345.51 1111.02 345.51 1111.02 267.2 1171.11 371.82 1214.54 371.82 1214.54 344.92 1199.75 344.92 1199.75 244.44 1214.54 244.44"/><path class="cls-1" d="M750.59,502.76c-7,17.46-21.5,26.47-42.09,26.47-30.14,0-45.22-21.69-45.22-47.79s15.07-47.79,45.22-47.79c20.59,0,35.11,9,42.09,26.47l-20.4,8.27c-4.78-9.74-11.4-15.26-21.69-15.26-14.34,0-21.32,11.95-21.32,28.31s7,28.31,21.32,28.31c10.29,0,16.91-5.51,21.69-15.26Z"/><path class="cls-1" d="M807.7,433.65c29.78,0,47.05,21,47.05,47.79s-17.28,47.79-47.05,47.79-47.05-21-47.05-47.79S777.93,433.65,807.7,433.65Zm0,76.1c14.7,0,23.16-13.05,23.16-28.31s-8.46-28.31-23.16-28.31-23.16,13.05-23.16,28.31S793,509.74,807.7,509.74Z"/><path class="cls-1" d="M927.31,527.76V466c0-9.37-4.6-12.87-11.4-12.87-11.21,0-20,13.05-20,40.62v34H873.09V435.12h22.79V450c6.8-10.29,14.7-16.36,26.65-16.36,11.4,0,21.87,5.7,25.92,19.12,6.62-11.95,16.91-19.12,28.31-19.12,17.28,0,27.57,10.66,27.57,28.49v65.62H981.53V466c0-9.37-4.59-12.87-11.4-12.87-11,0-20,12.5-20,38.6v36Z"/><path class="cls-1" d="M1082,527.76V466c0-9.37-4.6-12.87-11.4-12.87-11.21,0-20,13.05-20,40.62v34h-22.79V435.12h22.79V450c6.8-10.29,14.7-16.36,26.65-16.36,11.4,0,21.87,5.7,25.92,19.12,6.62-11.95,16.91-19.12,28.31-19.12,17.28,0,27.57,10.66,27.57,28.49v65.62h-22.79V466c0-9.37-4.59-12.87-11.39-12.87-11,0-20,12.5-20,38.6v36Z"/><path class="cls-1" d="M1238.51,527.76V512.87c-6.8,9.74-16.72,16.36-28.67,16.36-16.54,0-28.49-9.37-28.49-27.94V435.12h22.79v59.37c0,11,5.52,15.26,13.24,15.26,11,0,21.14-13.24,21.14-37.68V435.12h22.79v92.64Z"/><path class="cls-1" d="M1308.06,435.12V450c6.8-9.74,16.73-16.36,28.67-16.36,16.54,0,28.49,9.37,28.49,27.94v66.17h-22.79V468.39c0-11-5.51-15.26-13.24-15.26-11,0-21.14,13.23-21.14,37.68v36.94h-22.79V435.12Z"/><path class="cls-1" d="M1398.77,393.76a14.7,14.7,0,1,1-14.7,14.71A14.4,14.4,0,0,1,1398.77,393.76Zm11.4,41.36v92.64h-22.79V435.12Z"/><path class="cls-1" d="M1485.88,525.92a35,35,0,0,1-15.07,3.31c-21,0-34-11.21-34-34.19V454.6h-14.34V435.12h14.34V412l22.79-14.34v37.5H1484V454.6h-24.45v40.07c0,11.4,4.41,15.07,12.13,15.07a17.47,17.47,0,0,0,8.82-2.21Z"/><path class="cls-1" d="M1510.58,393.76a14.7,14.7,0,1,1-14.7,14.71A14.4,14.4,0,0,1,1510.58,393.76Zm11.4,41.36v92.64h-22.79V435.12Z"/><path class="cls-1" d="M1626.29,488.79h-63.78c.55,10.29,7.72,21,21.87,21,10.48,0,16.91-4.78,22.42-14.34l18.38,6.8c-7.17,16.36-19.67,27-42.09,27-31.8,0-44.48-25.92-44.48-47.79s12.68-47.79,44.48-47.79c30.88,0,43.2,25.55,43.2,45.77Zm-63.23-18h39.89c-2-9.19-7.72-17.65-19.85-17.65C1571.52,453.13,1564.72,462,1563.06,470.78Z"/><path class="cls-1" d="M1701.91,448.72l-13.6,12.5a20,20,0,0,0-15.44-8.09c-4.41,0-8.46,2.57-8.46,7.72,0,4,3.31,7,8.82,9,12.68,4.6,33.45,8.64,33.45,28.49,0,16.73-12.87,30.88-32.9,30.88-19.3,0-32.17-13.6-36.76-25l18.2-9.74c3.31,9,9.56,15.26,18.56,15.26,7,0,11.4-3.13,11.4-9.93,0-7.72-11.95-9.37-23.16-14.15-10.11-4.23-18.75-10.66-18.75-25s11.58-27,29.6-27C1685.37,433.65,1696.21,439.71,1701.91,448.72Z"/><path class="cls-1" d="M727.25,609.66l-13.6,12.5a20,20,0,0,0-15.44-8.09c-4.41,0-8.46,2.57-8.46,7.72,0,4,3.31,7,8.82,9,12.68,4.6,33.45,8.64,33.45,28.49,0,16.73-12.87,30.88-32.9,30.88-19.3,0-32.17-13.6-36.76-25l18.2-9.74c3.31,9,9.56,15.26,18.56,15.26,7,0,11.4-3.13,11.4-9.93,0-7.72-11.95-9.37-23.16-14.15-10.11-4.23-18.75-10.66-18.75-25s11.58-27,29.6-27C710.7,594.58,721.55,600.65,727.25,609.66Z"/><path class="cls-1" d="M805.51,688.69V673.8c-6.8,9.74-16.72,16.36-28.67,16.36-16.54,0-28.49-9.37-28.49-27.94V596.05h22.79v59.37c0,11,5.52,15.26,13.24,15.26,11,0,21.14-13.24,21.14-37.68V596.05h22.79v92.64Z"/><path class="cls-1" d="M906.5,688.69V626.93c0-9.37-4.6-12.87-11.4-12.87-11.21,0-20,13.05-20,40.62v34H852.27V596.05h22.79v14.89c6.8-10.29,14.7-16.36,26.65-16.36,11.4,0,21.87,5.7,25.92,19.12,6.62-11.95,16.91-19.12,28.31-19.12,17.28,0,27.57,10.66,27.57,28.49v65.62H960.72V626.93c0-9.37-4.59-12.87-11.4-12.87-11,0-20,12.5-20,38.6v36Z"/><path class="cls-1" d="M1061.16,688.69V626.93c0-9.37-4.6-12.87-11.4-12.87-11.21,0-20,13.05-20,40.62v34h-22.79V596.05h22.79v14.89c6.8-10.29,14.7-16.36,26.65-16.36,11.4,0,21.87,5.7,25.92,19.12,6.62-11.95,16.91-19.12,28.31-19.12,17.28,0,27.57,10.66,27.57,28.49v65.62h-22.79V626.93c0-9.37-4.59-12.87-11.39-12.87-11,0-20,12.5-20,38.6v36Z"/><path class="cls-1" d="M1171.92,554.7a14.7,14.7,0,1,1-14.7,14.71A14.4,14.4,0,0,1,1171.92,554.7Zm11.4,41.36v92.64h-22.79V596.05Z"/><path class="cls-1" d="M1259,686.85a35,35,0,0,1-15.07,3.31c-21,0-34-11.21-34-34.19V615.54h-14.34V596.05H1210V572.89l22.79-14.34v37.5h24.45v19.48h-24.45v40.07c0,11.4,4.41,15.07,12.13,15.07a17.47,17.47,0,0,0,8.82-2.21Z"/><path class="cls-2" d="M582.88,389.08l-36.62-4.37L493.72,270a1.75,1.75,0,0,0-3.32,0l-26.85,51.7-11.41-33.85a1.75,1.75,0,0,0-3.32,0l-7.63,19.38L435,302.94,421.68,269a1.75,1.75,0,0,0-3.32,0l-8.42,16.42L401,279.22l-13-37.28a2,2,0,0,0-3.7,0l-7,20.74L303.14,136.4V88l76.41-16.67V95.14l72.28-15.09a6.06,6.06,0,0,0,4.54-4.1l.21-.66a6.06,6.06,0,0,0-1.34-6L437.69,50.44l17.81-24.31a6.06,6.06,0,0,0,.2-6.87h0a6.06,6.06,0,0,0-6.35-2.64L408,25.41,408.62,0l-115,25.11.55,59.3v52.36l-91.4,138.68-5-12.67a2,2,0,0,0-3.7,0l-10.21,25.91-9.22,6.46-10.8-27.41a2,2,0,0,0-3.7,0L151.44,290,130,235.5a2,2,0,0,0-3.7,0l-25,63.54-5.38-13.66a1.75,1.75,0,0,0-3.32,0l-43.81,99.3-36.95,4.41A13.36,13.36,0,0,0,.73,406.69c9.34,27.26,27.09,84.7,27.09,127.69,0,20.79-7.4,56.24-12.87,67.8a13.37,13.37,0,0,0,5.33,17.28l268.5,156.71a13.36,13.36,0,0,0,13.38.05L575.27,619.62a13.38,13.38,0,0,0,5.25-17.67c-5.85-11.59-13.68-46.92-13.68-67.56,0-43,17.75-100.44,27.09-127.69A13.36,13.36,0,0,0,582.88,389.08ZM388.81,75.55V69.81l4.66-1Zm18.49-11a4.44,4.44,0,0,0,.26-.48c0-.09.09-.19.13-.28a4.44,4.44,0,0,0,.16-.5c0-.1.06-.19.08-.29a4.47,4.47,0,0,0,.06-.57c0-.08,0-.17,0-.25V34.54l35.83-7.62L428.31,48.14a4.47,4.47,0,0,0,.33,5.68l17.1,18.41L394.43,83.14l12.8-18.48S407.27,64.56,407.3,64.51ZM303.14,33.19l95.95-20.39V30.27a4.44,4.44,0,0,0,0,1.31V58.5L303.14,78.89Zm150.26,306-3.47-6.75,1.79-1.13,2.78,5.52,2.88-5.52,1.79,1.13-3.47,6.75,18.05,36.89-12.41-1.48-6.83-14.7-6,13.16-11-1.32Zm-73.15-41.5,3.1-2,4.83,9.58,5-9.58,3.1,2-6,11.73,29.11,60.17L398,367l-9.85-21.66-8.72,19.45-19-2.26,25.81-53.15ZM293,266.35l5.93,11.77,6.14-11.77,3.81,2.4-7.41,14.42,32.67,76.25-24.85-3-10.36-29.08L288.88,356,264,359l32.6-75.82-7.41-14.42Zm-86.08,43.06-6-11.73,3.1-2,4.83,9.58,5-9.58,3.1,2-6,11.73L237,362.21,218,364.49l-9.13-19.11-10.08,21.4-21.57,2.57Zm-66.24,29.77-3.47-6.75L139,331.3l2.78,5.52,2.88-5.52,1.79,1.13L143,339.18l15.84,32.36-11,1.31-6-13-6.64,14.47-12.47,1.49Z"/><path class="cls-3" d="M148.78,435.71c-46.87,0-85,40-85,89.17,0,49.42,38.13,89.63,85,89.63,48.84,0,87.09-39.37,87.09-89.63C235.87,474.88,197.62,435.71,148.78,435.71Zm0,149.1c-31,0-55.31-26.33-55.31-59.93,0-33.22,24.3-59.24,55.31-59.24,32.18,0,57.39,26,57.39,59.24C206.17,559,181.5,584.82,148.78,584.82Z"/><path class="cls-3" d="M379.05,570.67a60.12,60.12,0,0,1-37.45,13.45,59.24,59.24,0,1,1,0-118.48A59.92,59.92,0,0,1,365,470.4v20.44h29.24v-38.7l-1.27-.88A90.35,90.35,0,0,0,341.6,435C292.18,435,252,475.33,252,524.88A89.32,89.32,0,0,0,393,598l2-1.42-13-28.3Z"/><path class="cls-3" d="M474.18,507.61l-1.15-.08a68.17,68.17,0,0,1-10.5-1.29c-14.74-1.76-21.91-8.14-21.91-19.5a22.63,22.63,0,0,1,21.56-22.48h3.31a40.33,40.33,0,0,1,18.49,5.2v20.47h30.16V457.51l-.64-.8c-10.27-12.89-29-21.22-47.84-21.22h-3.47c-27.28,0-50.33,23.47-50.33,51.26,0,29.25,25.73,44.2,49.82,48.44,2,.36,4,.6,5.94.83s3.71.45,5.68.8c19.86,3.06,28.71,10.5,28.71,24.14,0,15.37-12.17,27.12-28.27,27.34h-6.54c-10.27-.56-18.6-3.39-25.42-8.65V561.7H411.38v28.77h1.91c11.33,15.07,32.14,24.73,53.51,24.73h6.93c30.95,0,55.19-23.83,55.19-54.26C528.92,532.23,508,511.8,474.18,507.61Z"/></g></g></svg>